<?xml version="1.0" encoding="UTF-8"?><svg id="Layer_1" xmlns="http://www.w3.org/2000/svg" viewBox="0 0 52 101"><defs><style>.cls-1,.cls-2{fill:none;}.cls-3{fill:#bbbdbf;}.cls-4{fill:#3e3feb;}.cls-2{stroke:#bbbdbf;stroke-miterlimit:10;stroke-width:2px;}</style></defs><g><path class="cls-1" d="M35.65,4.49c2.09,1.53,4.02,3.49,5.8,5.92,.31,.43,.6,.89,.9,1.33-.16,.78-.41,1.47-.77,2.03-.05,.08-.09,.18-.13,.28-.17,.44-.15,.8,.1,1.09,.19,.22,.4,.38,.61,.54,.23,.17,.39,.42,.45,.88,.05,.48,.23,.78,.53,.83,.21,.04,.37,.2,.51,.47,.17,.31,.37,.33,.57,.15,.36-.34,.74-.69,.87-1.45,.27,.6,.55,1.21,.82,1.82-.15,.21-.29,.4-.49,.47-.45,.17-.89,.36-1.33,.52-.51,.19-.51,.18-.62-.67,0-.07-.02-.14-.03-.2-.12-.39-.31-.44-.53-.32-.2,.1-.38,.24-.35,.69,.05,.69,.01,.81-.37,.92-.42,.12-.88,.07-1.2,.93,0-.48,.02-.78,0-1.08-.02-.33-.19-.55-.28-.84-.03-.09-.04-.2-.03-.3,.01-.44-.13-.73-.33-.89-.16-.12-.19-.22-.07-.43,.22-.37,.12-.67-.07-.95-.16-.24-.35-.21-.54-.19-.35,.04-.45,.31-.27,.84,.12,.36,.18,.7,.14,1.12-.04,.44,.02,.85,.21,1.17,.14,.23,.15,.51,.12,.81-.03,.32-.06,.64-.11,.95-.07,.38-.04,.72,.14,.97,.18,.24,.36,.09,.53-.08,.02,.04,.04,.07,.06,.11,0,.13-.03,.25-.09,.3-.23,.18-.24,.45-.12,.79,.06,.18,.11,.37,.15,.56,.13,.53,.31,1.03,.36,1.62,.05,.62-.04,.8-.41,.83-.29,.02-.58,0-.86,.05-.34,.05-.56,.33-.68,.91-.1,.52-.11,1.04-.08,1.57,.07,1.36,.68,2.28,1.46,2.2,.15-.01,.3-.05,.44-.07,.22-.03,.41-.22,.52-.52,.36-.94,.62-1.94,.54-3.12-.04-.47,.03-.57,.29-.41,.29,.18,.48,.08,.67-.36,.15-.35,.31-.72,.56-.89,.29-.2,.4-.06,.35,.45-.05,.51,.06,.8,.35,.96,.23,.13,.48,.25,.67,.54,.48,.72,.51,1.3,.18,2.48-.08,.29-.2,.63-.04,.9,.16,.26,.37,.12,.56-.02,.13-.1,.23-.27,.28-.51,.09-.4,.18-.79,.26-1.2,.14-.8-.16-2.24-.55-2.73-.2-.24-.33-.57-.45-1.05,.41,.14,.76,.34,1.06,.74,.05,.07,.09,.2,.1,.31,.07,.74,.23,1.45,.28,2.2,.05,.71,.16,.95,.58,1.09,.32,.1,.45,.38,.42,.92,0,.15-.02,.35,.08,.39,.14,.06,.15-.18,.19-.32,.21-.77,.08-1.52-.07-2.24-.1-.46,0-.62,.25-.7,.22-.07,.37-.08,.41,.44,.04,.52,.09,1.11,.39,1.38,.3,.27,.61,.49,.85,.9,.05,.09,.14,.14,.22,.1,.16,.91,.32,1.81,.48,2.72-.31,.04-.6-.24-.91-.17-.27,.06-.51-.1-.72-.39-.13-.18-.28-.36-.46-.32-.37,.09-.72,.22-1,.69-.22,.37-.15,.82-.13,1.26,.01,.26-.05,.34-.19,.25-.33-.2-.65-.43-.93-.79-.25-.32-.53-.55-.83-.67-.36-.13-.63-.48-.89-.88-.17-.25-.2-.45,0-.74,.34-.53,.29-.91-.14-1.19-.08-.05-.17-.08-.26-.09-.55-.08-1.04,.21-1.49,.71-.39,.44-.79,.87-1.2,1.24-.14,.13-.3,.27-.42-.06-.11-.33-.28-.32-.44-.2-.71,.52-1.18,1.49-1.29,2.74-.18,1.95-.53,3.75-1.2,5.35-.24,.56-.4,1.18-.55,1.81-.21,.9-.36,1.85-.21,2.8,.17,1.1,.39,2.2,.68,3.23,.17,.59,.34,1.22,.74,1.48,.51,.34,.93,.9,1.3,1.59,.17,.34,.39,.54,.64,.61,.67,.19,1.34,.27,1.98-.3,.33-.3,.68-.58,1.05-.74,.98-.43,1.96,.1,2.14,2.1,.09,.93,.25,1.73,.58,2.47,.26,.59,.23,.83-.07,1.39-.38,.72-.35,1.01,.16,1.46,.11,.09,.21,.18,.32,.27,.26,.21,.45,.56,.56,1.02,.13,.5,.25,1.01,.36,1.52,.11,.48,.12,.97,.01,1.46-.35,1.59-.14,3.21-.11,4.82-1.41,3.83-3.1,7.22-5.11,10.14-1.87,2.72-3.93,4.91-6.17,6.59-3.55,2.65-7.26,3.77-11.12,3.48-.18-.01-.36-.06-.53-.1,.23-.27,.45-.6,.44-1.12,0-.54,.17-.85,.38-1.14,.41-.55,.47-1.09,.23-1.88-.37-1.23-.13-2.28,.64-2.6,.83-.35,1.35-1.17,1.5-2.64,.07-.67,.32-1.03,.68-1.22,.21-.11,.43-.17,.62-.34,.71-.64,.99-1.13,.64-2.54-.28-1.12,.12-2.52,.77-2.97,.16-.11,.32-.2,.48-.27,.56-.24,1.04-.74,1.48-1.37,.71-1.01,.87-1.95,.61-3.46-.11-.64-.24-1.27-.35-1.9-.08-.46-.03-.88,.16-1.24,.45-.82,.65-1.82,.73-2.91,.08-1.16-.07-1.66-.69-2.16-.65-.52-1.34-.84-2.02-1.22-1.77-.97-1.58-.67-2.29-3.12-.13-.46-.35-.74-.64-.84-.18-.06-.37-.14-.56-.13-.64,.02-1.09-.43-1.31-1.49-.01-.06-.04-.12-.05-.18-.1-.35-.25-.59-.47-.75-.34-.26-.71-.35-1.04-.61-.58-.46-1.16-.47-1.77-.14-.45,.25-.46,.21-.6-.59-.09-.49-.3-.61-.51-.25-.17,.28-.34,.58-.47,.92-.17,.45-.39,.53-.67,.4-.35-.16-.7-.28-1.06-.29-.38-.02-.5-.21-.51-.86-.01-.53,0-1.06,0-1.59,0-.68-.1-.9-.48-1.13-.22-.13-.43-.25-.65-.38-.41-.26-.46-.45-.31-1.16,.13-.58,.28-1.14,.39-1.72,.09-.49-.12-1.1-.38-1.15-.4-.09-.82,.52-.82,1.22,0,.4-.11,.65-.27,.85-.29,.34-1.32-.48-1.32-1.09,0-.47-.1-.86-.19-1.27-.26-1.2-.07-2.77,.42-3.39,.43-.55,.84-1.24,1.46-.86,.05,.03,.12,0,.18-.01,.13-.05,.23-.17,.22-.41-.05-.62,.19-.66,.44-.67,.14,0,.28,0,.42,0,.43,.03,.49,.22,.59,.93,.13,.92,.17,1.94,.81,2.4,.29,.21,.43,.18,.55-.33,.14-.61,.17-1.22,.05-1.85-.07-.39-.12-.8-.19-1.18-.14-.72,0-1.27,.34-1.71,.27-.36,.54-.71,.8-1.06,.45-.59,.86-1.24,.94-2.27,.04-.44,.05-.89,.05-1.33,0-.34,.06-.52,.27-.52,.1,0,.2-.04,.3-.05,.74-.11,.78-.23,.46-1.39-.06-.21-.12-.45,0-.61,.35-.46,.74-.81,1.2-.96-.02,.3-.16,.4-.22,.59-.05,.16-.1,.31-.03,.48,.06,.14,.15,.16,.24,.14,.09-.02,.18-.05,.26-.13,.48-.52,.96-1.04,1.42-1.6,.21-.25,.38-.63,.24-1.1-.14-.49-.42-.27-.64-.21-.27,.07-.54,.23-.81,.35-.05,.02-.1,.06-.14,0-.03-.06-.01-.12,0-.18,.2-.64,.1-.97-.33-1.09-.11-.03-.27,.03-.28-.27-.01-.33,.15-.37,.28-.42,.41-.14,.83-.21,1.24-.18,.35,.02,.5,.21,.6,.8,.14,.84,.46,1.21,.95,1.05,.22-.07,.49-.12,.53-.6,.04-.46-.23-.51-.4-.64-.2-.16-.31-.4-.27-.76,.15-1.17-.05-2.31-.11-3.45-.03-.55-.22-.98-.54-1.2-.2-.15-.4-.31-.6-.46-.19-.13-.31-.32-.33-.71-.01-.41-.05-.82-.1-1.22-.04-.31-.12-.6-.33-.66-.19-.05-.27,.23-.36,.45-.05,.11-.08,.24-.12,.36-.15,.43-.31,.51-.57,.27-.3-.28-.5-.76-.62-1.28-.17-.82-.52-1.01-.96-.96-.15,.02-.3,.04-.45,.07-1.02,.22-1.26,1.17-.67,2.6,.44,1.08,.45,1.22-.12,2.07-.34,.52-.47,1.12-.34,1.88,.01,.07,.03,.13,.03,.2,0,.08,0,.19-.02,.24-.05,.08-.11,.03-.16-.02-.23-.2-.33-.59-.42-.96-.21-.89-.57-1.32-1.13-1.25-.29,.03-.56-.13-.77-.47-.33-.55-.71-.93-1.12-1.25-.24-.19-.34-.54-.35-1,0-.45,.12-.75,.34-.94,.25-.21,.5-.41,.76-.58,.7-.47,1.13-1.59,1.08-2.89,0-.22-.02-.46-.16-.57-.14-.11-.26,.02-.35,.18-.2,.39-.43,.36-.67,.15-.22-.18-.4-.43-.58-.71-.18-.28-.38-.45-.63-.5-.93-.18-1.85-.31-2.79-.08-.44,.1-.82-.28-1.21-.58,.93-1.1,1.91-2.03,2.92-2.88,1.78-1.49,3.65-2.59,5.58-3.32,.73-.28,1.46-.5,2.2-.64,.31,.96,.86,.93,1.38,.96,.25,.01,.55-.36,.75-.09,.21,.28,.12,.85,.14,1.31,0,.26,.04,.55,.18,.68,.5,.44,.85,1.24,1.34,1.69,.24,.23,.36,.58,.39,1.03,.04,.51,.08,1.02,.08,1.53,.02,1.39,.25,2.73,.38,4.09,.02,.18,.06,.32,.14,.44,.46,.78,1,1.35,1.59,1.75,.23,.15,.37-.04,.39-.45,.02-.29,.04-.58,.04-.87,0-.88,.25-1.45,.7-1.79,.29-.22,.58-.46,.89-.6,.93-.42,1.81-1.05,2.6-2,.4-.48,.88-.7,1.27-1.24,.19-.27,.35-.63,.25-1.02-.24-.95-.13-1.72,.3-2.39Zm-11.97,6.14c.32,0,.62,0,.91,0,.22,0,.33-.22,.32-.59-.01-.56-.12-1.04-.42-1.33-.67-.65-1.31-1.31-1.66-2.6-.19-.68-.53-.69-.85-.14-.17,.28-.28,.25-.4-.05-.14-.33-.28-.67-.42-1-.2-.47-.47-.72-.81-.73-.36,0-.72-.02-1.07-.03-.17,0-.34,.06-.48,.23-.25,.29-.49,.58-.75,.82-.27,.25-.26,1.24,.01,1.49,.33,.29,.68,.49,1.06,.34,.22-.09,.45-.13,.68-.2,.3-.09,.55,.04,.82,.32,.43,.46,.69,1.23,1.09,1.73,.32,.4,.33,.71,.15,1.33-.24,.83-.16,1.23,.36,1.4,.47,.16,.79,.52,.96,1.32,.12,.55,.39,.73,.7,.6,.26-.11,.5-.31,.54-.83,.04-.56,.02-1.11-.29-1.46-.16-.18-.33-.31-.43-.63Zm12.02,2.14c.26-.07,.62-.17,.98-.28,.3-.1,.49-.41,.49-.95,0-.53-.19-.81-.47-1-.68-.45-1.37-.25-2.06-.14-.16,.03-.29,.23-.4,.43-.19,.35-.12,.77,.16,.89,.08,.04,.18,.04,.27,.03,.11,0,.17,.04,.22,.25,.12,.57,.34,.78,.82,.76Zm3.71,6.2c0-.76-.35-1.17-.66-.78-.26,.32-.51,.72-.66,1.24-.08,.29-.14,.61-.13,.94,0,.41,.11,.73,.37,.78,.66,.14,1.21-.86,1.09-1.97-.01-.1-.01-.2-.01-.21Zm-20.15,21.21c-.23,0-.52,.09-.8,.27-.1,.06-.22,.15-.21,.38,0,.25,.14,.25,.24,.32,.04,.03,.1,.03,.15,.04,.49,.1,.95,.29,1.34,.87,.14,.22,.33,.33,.52,.37,.22,.04,.42-.05,.55-.37,.1-.24,.05-.49-.1-.49-.32,0-.5-.36-.65-.7-.25-.56-.58-.68-1.02-.68Zm2.56,2.15c-.09,0-.11,0-.13-.01-.24-.06-.38,.18-.45,.53-.07,.37-.13,.78,.07,1.09,.18,.27,.38,.29,.57,.06,.12-.14,.25-.19,.39-.24,.27-.09,.55-.16,.82-.26,.18-.07,.26-.25,.15-.56-.06-.17-.15-.27-.25-.34-.4-.31-.8-.65-1.17-.26Z"/><path class="cls-1" d="M22.45,86.68c-.7-.11-1.39-.37-2.08-.64-1.51-.6-2.98-1.43-4.41-2.5-1.74-1.31-3.39-2.93-4.91-4.9-2.27-2.96-4.23-6.46-5.82-10.55-1.45-3.73-2.55-7.73-3.26-12.03-.82-4.96-1.13-10.02-.9-15.18,.19-4.19,.71-8.25,1.58-12.17,.82-3.71,1.93-7.14,3.31-10.33,.08,.15,.07,.35,.08,.53,.03,.88-.05,1.73-.21,2.57-.15,.8-.11,.91,.27,1.42,.23,.3,.44,.65,.65,.98,.15,.24,.22,.54,.25,.9,.08,1.01,.07,2.01-.07,3-.12,.91-.09,1.8,.3,2.51,.53,.95,.76,2.07,.84,3.36,.07,.99,.24,1.98,.65,2.71,.42,.74,.78,1.55,1.13,2.38,.08,.2,.19,.41,.35,.25,.14-.14,.13-.39,.09-.64-.11-.67-.32-1.25-.55-1.8-.23-.54-.28-1.16-.3-1.79-.01-.33,.08-.42,.26-.29,.3,.21,.52,.51,.66,1.08,.41,1.69,.72,3.43,.99,5.2,.17,1.07,.45,2.06,.97,2.76,.41,.56,.91,.83,1.4,1.12,.5,.3,1.03,.49,1.46,1.12,.12,.18,.29,.35,.46,.33,.64-.09,1.01,.54,1.33,1.35,.37,.93,.79,1.71,1.49,1.95,.78,.27,1.07,1.42,1.33,2.56,.07,.32,.08,.63,0,.94-.14,.54-.16,1.12-.2,1.7-.07,1.06-.22,2.11-.58,2.99-.42,1.01-.58,2.11-.6,3.32-.02,.81,.16,1.46,.48,2.02,.36,.62,.71,1.24,1.06,1.87,.36,.64,.76,1.15,1.25,1.46,.38,.24,.77,.46,1.15,.7,.39,.24,.48,.44,.46,1.14-.06,1.96-.03,3.93-.16,5.89-.04,.59-.09,1.19-.06,1.79,.07,1.47,0,2.94-.17,4.38-.17,1.43-.28,2.85,.01,4.29,.14,.71,.25,1.49,.03,2.25Z"/><path class="cls-3" d="M39.41,18.97s0,.11,.01,.21c.11,1.11-.44,2.11-1.09,1.97-.26-.06-.36-.37-.37-.78,0-.33,.05-.65,.13-.94,.15-.52,.41-.92,.66-1.24,.31-.39,.66,.03,.66,.78Z"/><g><path class="cls-3" d="M22.45,86.68c.21-.76,.11-1.54-.03-2.25-.29-1.45-.18-2.86-.01-4.29,.17-1.45,.24-2.91,.17-4.38-.03-.6,.02-1.2,.06-1.79,.14-1.96,.11-3.93,.16-5.89,.02-.7-.07-.89-.46-1.14-.38-.24-.77-.46-1.15-.7-.49-.31-.89-.81-1.25-1.46-.35-.63-.71-1.25-1.06-1.87-.32-.56-.5-1.21-.48-2.02,.03-1.2,.19-2.3,.6-3.32,.36-.87,.51-1.92,.58-2.99,.04-.58,.06-1.16,.2-1.7,.08-.31,.08-.62,0-.94-.26-1.14-.55-2.29-1.33-2.56-.71-.24-1.12-1.02-1.49-1.95-.32-.82-.7-1.44-1.33-1.35-.17,.02-.34-.15-.46-.33-.42-.63-.95-.82-1.46-1.12-.49-.29-.99-.56-1.4-1.12-.52-.71-.8-1.69-.97-2.76-.27-1.77-.58-3.51-.99-5.2-.14-.57-.36-.86-.66-1.08-.18-.13-.27-.04-.26,.29,.02,.64,.07,1.25,.3,1.79,.24,.55,.44,1.14,.55,1.8,.04,.25,.05,.5-.09,.64-.16,.15-.26-.06-.35-.25-.35-.83-.71-1.64-1.13-2.38-.41-.73-.59-1.72-.65-2.71-.09-1.28-.32-2.41-.84-3.36-.39-.7-.43-1.6-.3-2.51,.13-1,.15-1.99,.07-3-.03-.36-.1-.66-.25-.9-.21-.34-.42-.68-.65-.98-.38-.51-.42-.61-.27-1.42,.16-.84,.25-1.69,.21-2.57,0-.19,0-.38-.08-.53,.14-1.02,.61-1.66,.97-2.41,.66-1.39,1.39-2.67,2.17-3.87,.85-1.32,1.74-2.53,2.68-3.64,.12-.14,.24-.15,.37-.16,.38,.3,.77,.69,1.21,.58,.93-.22,1.86-.1,2.79,.08,.25,.05,.45,.22,.63,.5,.18,.28,.36,.52,.58,.71,.25,.21,.47,.23,.67-.15,.09-.17,.2-.29,.35-.18,.14,.11,.15,.34,.16,.57,.05,1.3-.37,2.42-1.08,2.89-.26,.17-.51,.37-.76,.58-.22,.19-.35,.48-.34,.94,0,.45,.11,.81,.35,1,.41,.32,.79,.71,1.12,1.25,.2,.34,.48,.5,.77,.47,.56-.06,.92,.36,1.13,1.25,.09,.38,.19,.76,.42,.96,.06,.05,.12,.1,.16,.02,.03-.05,.02-.16,.02-.24,0-.07-.02-.13-.03-.2-.12-.75,0-1.35,.34-1.88,.56-.86,.56-1,.12-2.07-.59-1.43-.34-2.38,.67-2.6,.15-.03,.3-.05,.45-.07,.44-.05,.79,.14,.96,.96,.11,.52,.31,1,.62,1.28,.26,.24,.42,.16,.57-.27,.04-.12,.07-.24,.12-.36,.09-.22,.17-.5,.36-.45,.21,.06,.29,.35,.33,.66,.05,.4,.09,.81,.1,1.22,.01,.39,.14,.57,.33,.71,.2,.15,.4,.31,.6,.46,.31,.23,.5,.65,.54,1.2,.06,1.15,.26,2.28,.11,3.45-.05,.36,.06,.6,.27,.76,.17,.13,.44,.18,.4,.64-.04,.48-.31,.54-.53,.6-.49,.15-.8-.21-.95-1.05-.1-.59-.25-.78-.6-.8-.42-.03-.83,.04-1.24,.18-.13,.05-.3,.09-.28,.42,.01,.29,.16,.24,.28,.27,.43,.12,.53,.45,.33,1.09-.02,.06-.04,.12,0,.18,.04,.07,.09,.03,.14,0,.27-.12,.53-.27,.81-.35,.22-.06,.5-.28,.64,.21,.14,.47-.04,.85-.24,1.1-.46,.56-.94,1.08-1.42,1.6-.07,.08-.17,.1-.26,.13-.09,.02-.18,0-.24-.14-.07-.17-.02-.32,.03-.48,.06-.19,.2-.29,.22-.59-.46,.15-.85,.5-1.2,.96-.13,.16-.06,.4,0,.61,.31,1.16,.27,1.28-.46,1.39-.1,.01-.2,.05-.3,.05-.21,0-.27,.18-.27,.52,0,.44-.01,.89-.05,1.33-.08,1.03-.49,1.68-.94,2.27-.27,.35-.54,.7-.8,1.06-.33,.44-.48,.98-.34,1.71,.08,.39,.12,.79,.19,1.18,.12,.63,.09,1.25-.05,1.85-.12,.52-.27,.54-.55,.33-.63-.46-.68-1.48-.81-2.4-.1-.72-.16-.91-.59-.93-.14,0-.28-.01-.42,0-.25,.01-.49,.05-.44,.67,.02,.25-.09,.37-.22,.41-.06,.02-.13,.04-.18,.01-.62-.38-1.03,.31-1.46,.86-.49,.63-.68,2.19-.42,3.39,.09,.41,.19,.8,.19,1.27,0,.6,1.03,1.42,1.32,1.09,.17-.2,.28-.45,.27-.85,0-.71,.41-1.31,.82-1.22,.26,.06,.48,.66,.38,1.15-.11,.58-.26,1.15-.39,1.72-.16,.71-.1,.9,.31,1.16,.21,.13,.43,.25,.65,.38,.38,.23,.47,.45,.48,1.13,0,.53,0,1.06,0,1.59,.01,.65,.13,.85,.51,.86,.36,.02,.71,.13,1.06,.29,.28,.13,.49,.06,.67-.4,.13-.34,.3-.64,.47-.92,.22-.35,.43-.23,.51,.25,.14,.8,.15,.84,.6,.59,.61-.33,1.18-.32,1.77,.14,.33,.26,.7,.35,1.04,.61,.21,.16,.37,.4,.47,.75,.02,.06,.04,.12,.05,.18,.22,1.06,.67,1.51,1.31,1.49,.19,0,.37,.07,.56,.13,.29,.1,.5,.38,.64,.84,.71,2.45,.52,2.15,2.29,3.12,.68,.38,1.37,.69,2.02,1.22,.62,.5,.77,.99,.69,2.16-.08,1.09-.28,2.1-.73,2.91-.2,.36-.24,.78-.16,1.24,.11,.64,.24,1.27,.35,1.9,.27,1.51,.1,2.45-.61,3.46-.44,.63-.92,1.12-1.48,1.37-.16,.07-.32,.17-.48,.27-.65,.45-1.05,1.85-.77,2.97,.35,1.4,.07,1.9-.64,2.54-.19,.17-.41,.23-.62,.34-.36,.19-.61,.55-.68,1.22-.15,1.47-.68,2.29-1.5,2.64-.77,.32-1.01,1.37-.64,2.6,.24,.79,.17,1.33-.23,1.88-.22,.29-.39,.6-.38,1.14,0,.53-.21,.85-.44,1.12-.59,.07-1.18-.05-1.75-.3Z"/><path class="cls-3" d="M47.14,66.86c-.03-1.61-.24-3.23,.11-4.82,.11-.48,.1-.98-.01-1.46-.12-.51-.24-1.01-.36-1.52-.11-.46-.3-.8-.56-1.02-.11-.09-.21-.18-.32-.27-.51-.45-.54-.74-.16-1.46,.29-.56,.33-.8,.07-1.39-.33-.74-.49-1.54-.58-2.47-.18-2-1.16-2.53-2.14-2.1-.36,.16-.71,.44-1.05,.74-.64,.57-1.31,.49-1.98,.3-.25-.07-.46-.28-.64-.61-.36-.7-.78-1.25-1.3-1.59-.4-.26-.57-.89-.74-1.48-.3-1.03-.51-2.12-.68-3.23-.15-.96,0-1.9,.21-2.8,.15-.63,.32-1.25,.55-1.81,.67-1.6,1.02-3.4,1.2-5.35,.12-1.25,.59-2.22,1.29-2.74,.16-.12,.33-.13,.44,.2,.11,.33,.27,.19,.42,.06,.42-.37,.81-.8,1.2-1.24,.45-.51,.94-.8,1.49-.71,.09,.01,.18,.04,.26,.09,.43,.28,.48,.66,.14,1.19-.19,.3-.16,.49,0,.74,.26,.4,.54,.75,.89,.88,.3,.11,.58,.34,.83,.67,.28,.36,.6,.59,.93,.79,.15,.09,.2,0,.19-.25-.02-.44-.09-.89,.13-1.26,.28-.48,.64-.61,1-.69,.18-.04,.32,.13,.46,.32,.21,.29,.44,.45,.72,.39,.31-.07,.6,.21,.91,.17,.28,.32,.25,.87,.31,1.34,.49,3.72,.68,7.49,.59,11.3-.07,3.08-.34,6.11-.76,9.11-.43,3.02-1.09,5.88-1.86,8.67-.29,1.05-.66,2.03-.99,3.04-.05,.16-.12,.28-.23,.26Z"/><path class="cls-3" d="M35.65,4.49c-.43,.67-.54,1.44-.3,2.39,.1,.39-.06,.75-.25,1.02-.38,.53-.87,.76-1.27,1.24-.79,.95-1.66,1.58-2.6,2-.31,.14-.6,.38-.89,.6-.45,.34-.71,.91-.7,1.79,0,.29-.02,.58-.04,.87-.03,.41-.17,.6-.39,.45-.6-.4-1.14-.97-1.59-1.75-.07-.12-.12-.27-.14-.44-.13-1.36-.36-2.69-.38-4.09,0-.51-.05-1.02-.08-1.53-.03-.45-.14-.8-.39-1.03-.49-.45-.84-1.25-1.34-1.69-.14-.12-.17-.41-.18-.68-.01-.45,.07-1.02-.14-1.31-.2-.28-.49,.1-.75,.09-.52-.03-1.07,0-1.38-.96,.24-.29,.54-.22,.8-.26,2.01-.33,4.02-.24,6.02,.27,1.93,.49,3.8,1.38,5.61,2.62,.13,.09,.29,.16,.37,.41Z"/><path class="cls-3" d="M40.43,21.83c-.17,.16-.35,.32-.53,.08-.18-.25-.21-.59-.14-.97,.05-.31,.08-.63,.11-.95,.03-.29,.01-.58-.12-.81-.19-.32-.26-.73-.21-1.17,.04-.41-.02-.76-.14-1.12-.17-.53-.08-.81,.27-.84,.19-.02,.38-.05,.54,.19,.19,.28,.29,.58,.07,.95-.12,.21-.09,.3,.07,.43,.21,.16,.35,.45,.33,.89,0,.1,0,.21,.03,.3,.09,.29,.25,.5,.28,.84,.02,.29,0,.59,0,1.08,.32-.86,.78-.81,1.2-.93,.39-.11,.43-.23,.37-.92-.03-.45,.15-.59,.35-.69,.22-.12,.41-.07,.53,.32,.02,.06,.03,.13,.03,.2,.1,.85,.1,.86,.62,.67,.45-.16,.89-.35,1.33-.52,.19-.07,.34-.27,.49-.47,.36,.42,.53,1.09,.76,1.68,1.19,3.01,2.15,6.21,2.85,9.64,.05,.24,.1,.48,.07,.75-.09,.04-.17,0-.22-.1-.25-.41-.56-.63-.85-.9-.3-.27-.35-.87-.39-1.38-.04-.52-.19-.51-.41-.44-.24,.08-.34,.23-.25,.7,.15,.73,.28,1.47,.07,2.24-.04,.14-.05,.38-.19,.32-.11-.05-.09-.24-.08-.39,.03-.54-.1-.81-.42-.92-.42-.14-.53-.37-.58-1.09-.05-.75-.21-1.46-.28-2.2-.01-.11-.05-.24-.1-.31-.3-.4-.65-.59-1.06-.74,.12,.48,.25,.81,.45,1.05,.4,.49,.7,1.93,.55,2.73-.07,.41-.17,.8-.26,1.2-.05,.23-.15,.4-.28,.51-.19,.14-.4,.29-.56,.02-.16-.27-.04-.61,.04-.9,.34-1.18,.3-1.75-.18-2.48-.19-.29-.44-.42-.67-.54-.29-.16-.4-.45-.35-.96,.05-.51-.07-.65-.35-.45-.25,.18-.41,.54-.56,.89-.18,.43-.38,.54-.67,.36-.27-.17-.33-.06-.29,.41,.09,1.18-.18,2.18-.54,3.12-.11,.3-.3,.49-.52,.52-.15,.02-.3,.05-.44,.07-.78,.08-1.39-.84-1.46-2.2-.03-.53-.02-1.05,.08-1.57,.11-.58,.34-.87,.68-.91,.29-.04,.58-.02,.86-.05,.36-.03,.45-.21,.41-.83-.05-.59-.23-1.09-.36-1.62-.05-.19-.09-.38-.15-.56-.11-.34-.11-.61,.12-.79,.06-.05,.1-.17,.09-.3,.18-.17,.24-.45,.28-.84-.21,.18-.28,.45-.35,.73Z"/><path class="cls-3" d="M45.09,16.54c-.13,.76-.51,1.11-.87,1.45-.2,.19-.4,.17-.57-.15-.14-.26-.31-.43-.51-.47-.3-.05-.48-.36-.53-.83-.05-.46-.21-.7-.45-.88-.21-.16-.42-.32-.61-.54-.25-.29-.28-.65-.1-1.09,.04-.1,.08-.2,.13-.28,.36-.56,.61-1.24,.77-2.03,.12-.05,.21,.05,.29,.19,.76,1.18,1.49,2.41,2.16,3.74,.13,.26,.23,.55,.29,.88Z"/><path class="cls-3" d="M23.68,10.63c.1,.32,.27,.46,.43,.63,.31,.35,.34,.9,.29,1.46-.04,.52-.28,.72-.54,.83-.31,.13-.58-.05-.7-.6-.17-.8-.49-1.16-.96-1.32-.52-.17-.61-.57-.36-1.4,.18-.62,.17-.94-.15-1.33-.4-.51-.66-1.28-1.09-1.73-.26-.28-.52-.41-.82-.32-.22,.07-.45,.11-.68,.2-.38,.15-.73-.04-1.06-.34-.28-.25-.29-1.23-.01-1.49,.26-.24,.51-.53,.75-.82,.14-.17,.31-.24,.48-.23,.36,.01,.72,.02,1.07,.03,.34,0,.61,.25,.81,.73,.14,.33,.28,.66,.42,1,.12,.3,.23,.33,.4,.05,.33-.55,.67-.54,.85,.14,.35,1.29,1,1.95,1.66,2.6,.3,.29,.41,.77,.42,1.33,0,.37-.1,.58-.32,.59-.29,0-.59,0-.91,0Z"/><path class="cls-3" d="M35.7,12.77c-.48,.02-.69-.2-.82-.76-.05-.21-.11-.25-.22-.25-.09,0-.18,0-.27-.03-.27-.12-.35-.54-.16-.89,.11-.2,.24-.4,.4-.43,.69-.11,1.38-.31,2.06,.14,.28,.18,.47,.47,.47,1,0,.53-.19,.85-.49,.95-.36,.12-.72,.21-.98,.28Z"/><path class="cls-3" d="M19.26,40.18c.44,0,.77,.12,1.02,.68,.16,.35,.33,.71,.65,.7,.16,0,.21,.25,.1,.49-.14,.32-.34,.41-.55,.37-.19-.04-.37-.15-.52-.37-.38-.58-.85-.78-1.34-.87-.05,0-.1,0-.15-.04-.1-.07-.24-.07-.24-.32,0-.23,.11-.32,.21-.38,.28-.17,.57-.26,.8-.27Z"/><path class="cls-3" d="M21.82,42.32c.38-.39,.77-.05,1.17,.26,.1,.08,.19,.18,.25,.34,.11,.31,.03,.49-.15,.56-.27,.1-.55,.17-.82,.26-.14,.05-.27,.1-.39,.24-.2,.23-.4,.21-.57-.06-.21-.31-.14-.73-.07-1.09,.06-.35,.21-.58,.45-.53,.02,0,.04,0,.13,.01Z"/></g><path class="cls-4" d="M40.43,21.83c.07-.28,.14-.55,.35-.73-.04,.39-.1,.67-.28,.84-.02-.04-.04-.07-.06-.11Z"/><path class="cls-2" d="M50.39,34.48c-.06-.46-.03-1.01-.31-1.34-.16-.91-.32-1.81-.48-2.72h0c.03-.26-.02-.51-.07-.75-.7-3.43-1.67-6.64-2.85-9.64-.23-.58-.41-1.26-.76-1.68-.27-.61-.55-1.21-.82-1.82-.06-.33-.16-.62-.29-.88-.67-1.33-1.4-2.56-2.16-3.74-.08-.13-.17-.23-.29-.19-.3-.44-.59-.9-.9-1.33-1.78-2.43-3.71-4.39-5.8-5.92-.08-.25-.23-.32-.37-.41-1.81-1.24-3.68-2.13-5.61-2.62-2-.51-4.01-.59-6.02-.27-.27,.04-.56-.03-.8,.26-.74,.14-1.47,.36-2.2,.64-1.94,.73-3.8,1.83-5.58,3.32-1.01,.85-1.99,1.78-2.92,2.88-.13,0-.25,.02-.37,.16-.94,1.11-1.84,2.33-2.68,3.64-.77,1.2-1.51,2.48-2.17,3.87-.36,.76-.83,1.39-.97,2.41-1.37,3.18-2.49,6.62-3.31,10.33-.87,3.92-1.39,7.98-1.58,12.17-.23,5.16,.08,10.22,.9,15.18,.71,4.3,1.81,8.31,3.26,12.03,1.59,4.09,3.55,7.59,5.82,10.55,1.52,1.97,3.16,3.59,4.91,4.9,1.42,1.07,2.89,1.91,4.41,2.5,.69,.27,1.37,.53,2.08,.64,.57,.25,1.16,.37,1.75,.3h0c.18,.03,.35,.08,.53,.1,3.86,.29,7.57-.84,11.12-3.48,2.24-1.67,4.3-3.87,6.17-6.59,2.01-2.93,3.71-6.32,5.11-10.14,.12,.01,.18-.11,.23-.26,.33-1.01,.7-1.99,.99-3.04,.77-2.79,1.43-5.65,1.86-8.67,.42-3,.69-6.03,.76-9.11,.08-3.81-.1-7.58-.59-11.3Z"/></g><g><path class="cls-3" d="M9.85,100.74h-2.28l-4.45-7.59v7.59H1v-10.68H3.39l4.34,7.46v-7.46h2.12v10.68Z"/><path class="cls-3" d="M18.71,98.42c-.05,.47-.3,.94-.75,1.43-.69,.77-1.66,1.15-2.9,1.15-1.03,0-1.93-.32-2.71-.97s-1.18-1.7-1.18-3.16c0-1.37,.35-2.42,1.06-3.15s1.63-1.09,2.76-1.09c.67,0,1.27,.12,1.81,.37s.98,.64,1.33,1.17c.32,.47,.52,1.01,.61,1.63,.05,.36,.08,.88,.07,1.57h-5.52c.03,.79,.28,1.35,.76,1.67,.29,.2,.64,.3,1.05,.3,.43,0,.79-.12,1.06-.36,.15-.13,.28-.31,.39-.54h2.15Zm-2.09-2.42c-.03-.55-.2-.96-.51-1.24-.3-.28-.68-.42-1.13-.42-.49,0-.87,.15-1.14,.45s-.44,.71-.51,1.22h3.28Z"/><path class="cls-3" d="M25.4,99.62s-.07,.1-.15,.22-.17,.23-.28,.32c-.33,.29-.65,.49-.96,.59-.31,.11-.67,.16-1.08,.16-1.19,0-2-.42-2.41-1.26-.23-.46-.35-1.15-.35-2.05v-4.76h2.16v4.76c0,.45,.05,.79,.16,1.01,.19,.4,.57,.6,1.13,.6,.72,0,1.21-.28,1.48-.86,.14-.31,.21-.72,.21-1.22v-4.3h2.14v7.9h-2.05v-1.12Z"/><path class="cls-3" d="M33.17,99.27v1.54l-1,.04c-1,.03-1.68-.14-2.04-.51-.24-.24-.36-.6-.36-1.09v-4.86h-1.12v-1.47h1.12v-2.2h2.09v2.2h1.31v1.47h-1.31v4.17c0,.32,.04,.52,.13,.61,.08,.08,.34,.12,.77,.12,.06,0,.13,0,.2,0,.07,0,.14,0,.21-.01Z"/><path class="cls-3" d="M38.58,94.75c-.85,0-1.42,.27-1.71,.81-.16,.3-.24,.77-.24,1.41v3.78h-2.12v-7.9h2.01v1.38c.33-.53,.61-.89,.85-1.08,.39-.32,.91-.49,1.54-.49,.04,0,.07,0,.1,0,.03,0,.09,0,.18,.01v2.12c-.13-.01-.25-.02-.36-.03s-.19,0-.25,0Z"/><path class="cls-3" d="M40.73,93.7c.56-.7,1.51-1.04,2.87-1.04,.88,0,1.67,.17,2.35,.51s1.03,.99,1.03,1.94v3.62c0,.25,0,.56,.01,.91,.01,.27,.06,.45,.13,.55s.17,.18,.31,.24v.3h-2.29c-.06-.16-.11-.31-.13-.45s-.04-.3-.06-.48c-.29,.31-.63,.57-1.01,.79-.45,.26-.97,.38-1.54,.38-.73,0-1.33-.2-1.81-.61-.48-.41-.71-.99-.71-1.74,0-.97,.38-1.67,1.15-2.11,.42-.24,1.04-.41,1.85-.51l.72-.09c.39-.05,.67-.11,.84-.18,.3-.13,.45-.32,.45-.59,0-.32-.12-.55-.34-.67-.23-.12-.57-.19-1.01-.19-.5,0-.85,.12-1.06,.36-.15,.18-.25,.42-.3,.72h-2.03c.04-.69,.24-1.26,.59-1.7Zm1.57,5.55c.2,.16,.44,.24,.72,.24,.45,0,.87-.13,1.25-.39,.38-.26,.58-.74,.6-1.43v-.77c-.13,.08-.27,.15-.4,.2-.14,.05-.32,.1-.56,.14l-.47,.09c-.44,.08-.76,.17-.95,.28-.33,.19-.49,.48-.49,.88,0,.35,.1,.61,.3,.76Z"/><path class="cls-3" d="M48.89,90.06h2.11v10.68h-2.11v-10.68Z"/></g></svg>