<?xml version="1.0" encoding="UTF-8"?><svg id="Layer_1" xmlns="http://www.w3.org/2000/svg" viewBox="0 0 51.31 100.93"><defs><style>.cls-1{fill:#bcbec0;}.cls-2{fill:none;stroke:#bcbec0;stroke-miterlimit:10;stroke-width:2px;}</style></defs><path class="cls-2" d="M24.99,84.09c.37-.41,.97-.41,1.34,0l14.11,15.6c.37,.41,.63,.29,.59-.26l-2.79-34.19c-.04-.55,.12-1.4,.36-1.9l11.62-23.83c.24-.49,0-1.03-.52-1.19l-15.36-4.69c-.53-.16-1.06-.73-1.18-1.27L25.89,1.4c-.13-.54-.33-.54-.46,0l-7.27,30.97c-.13,.54-.66,1.11-1.18,1.27L1.61,38.33c-.53,.16-.76,.7-.52,1.19l11.62,23.83c.24,.49,.4,1.35,.36,1.9l-2.79,34.19c-.04,.55,.22,.66,.59,.26l14.11-15.6Z"/><path class="cls-1" d="M28.45,58.08h-4.88v10.98h-4.78v-30.54h10.02c2.31,0,4.15,.79,5.53,2.36s2.06,4.01,2.06,7.31c0,3.6-.69,6.15-2.06,7.64s-3.33,2.24-5.89,2.24Zm2.25-6.36c.62-.73,.94-1.89,.94-3.48s-.32-2.72-.95-3.4c-.63-.68-1.51-1.02-2.65-1.02h-4.48v8.99h4.48c1.14,0,2.02-.37,2.65-1.1Z"/></svg>