<?xml version="1.0" encoding="UTF-8"?><svg id="Layer_1" xmlns="http://www.w3.org/2000/svg" viewBox="0 0 53 103"><defs><style>.cls-1{fill:none;stroke:gold;stroke-miterlimit:10;stroke-width:3px;}</style></defs><path class="cls-1" d="M12.87,72.59l27.63,.1-27.63-.1Z"/><g><line class="cls-1" x1="6.96" y1="34.09" x2="6.96" y2="87.17"/><g><path class="cls-1" d="M6.96,34.09v-15.51C6.96,9.14,14.63,1.5,24.1,1.5h5.07c9.46,0,17.14,7.64,17.14,17.07V87.17c0,7.92-6.44,14.33-14.39,14.33h-10.57c-7.95,0-14.39-6.42-14.39-14.33"/><g><path class="cls-1" d="M40.4,88.28c0,.55-.4,1.2-.89,1.45,0,0-6.13,3.11-12.67,3.15-6.78,.05-13.08-3.15-13.08-3.15-.49-.25-.89-.9-.89-1.45V42.93c0-.55,.4-1.2,.9-1.44,0,0,5.95-2.9,12.06-3.07,7.02-.2,13.67,3.06,13.67,3.06,.49,.24,.9,.89,.9,1.44v45.35Z"/><path class="cls-1" d="M6.96,27.13c3.61-1.77,10.91-4.74,20.53-4.56,8.68,.17,15.29,2.83,18.82,4.56"/><path class="cls-1" d="M12.87,43.21c-.93-1.75-1.86-3.7-2.73-5.84-1.51-3.72-2.51-7.19-3.17-10.24"/><path class="cls-1" d="M40.4,43.21c.81-1.52,1.62-3.17,2.38-4.96,1.71-4.02,2.81-7.8,3.53-11.11"/></g></g></g><g><path class="cls-1" d="M5.45,35l-3.42,3.4c-.72,.71-.72,1.87,0,2.59s1.88,.71,2.6,0l1.83-1.83v-4.64c-.37,.06-.73,.2-1.01,.48Z"/><path class="cls-1" d="M47.55,35l3.42,3.4c.72,.71,.72,1.87,0,2.59s-1.88,.71-2.6,0l-1.83-1.83v-4.64c.37,.06,.73,.2,1.01,.48Z"/></g></svg>